<?xml version="1.0" encoding="UTF-8"?>
<svg id="Layer_1" data-name="Layer 1" xmlns="http://www.w3.org/2000/svg" viewBox="0 0 57.79 66.28">
  <defs>
    <style>
      .cls-1 {
        fill: #47d6ce;
        stroke-width: 0px;
      }
    </style>
  </defs>
  <path class="cls-1" d="M54.54,19.98h0c-4.05-3.62-8.09-7.26-12.13-10.89-2.42-2.18-4.83-4.35-7.25-6.53-3.8-3.41-8.71-3.41-12.52,0-3.25,2.92-6.49,5.84-9.74,8.76-3.24,2.92-6.49,5.84-9.73,8.76-2.13,1.9-3.17,4.23-3.17,7.1.02,7.09.02,14.17.02,21.26,0,.55,0,1.11.1,1.66.79,4.52,4.39,7.56,8.97,7.58h3.82l1.08-.04-.81-.77-.08-.12c-.15-.21-.3-.42-.44-.66-.79-1.18-1.44-2.45-1.94-3.8-.12-.29-.22-.58-.31-.86l-.1-.31h-.96c-1.81-.02-2.77-.98-2.77-2.8v-21.04c0-.99.32-1.72,1.05-2.36L27.18,7.32c1.09-.97,2.32-.99,3.38-.05l19.76,17.8c.59.52.88,1.18.88,2.02.02,7.16.02,14.29,0,21.45,0,1.48-.9,2.51-2.26,2.55-.31.02-.57.02-.92.02h-.32l-.42,1.18c-.26.7-.56,1.36-.9,2.02l-.15.29,2.06,2.06c.3.28.58.57.87.85l.13.13h.18c.23,0,.45-.03.75-.08,4.49-.79,7.53-4.4,7.54-8.99,0-3.04,0-6.07,0-9.11,0-4.05,0-8.1.01-12.15,0-2.96-1.06-5.36-3.25-7.34Z"/>
  <path class="cls-1" d="M42.56,55.13s-.07-.07-.1-.1c.55-.78,1.03-1.58,1.4-2.36.12-.22.23-.44.33-.67h.16v-.37c.12-.28.24-.57.31-.83,2.32-6.55.28-13.92-5.1-18.34-6.47-5.31-15.95-4.96-22.04.82-4.72,4.45-6.35,11.34-4.17,17.53.09.32.21.62.34.94.13.31.28.63.42.92.47.94.95,1.74,1.47,2.44.43.59.86,1.09,1.27,1.53.32.36.66.67.94.92.37.36.75.67,1.11.93,5.87,4.44,13.98,4.53,19.87.27.03.04.07.08.1.11,2.13,2.14,4.25,4.27,6.37,6.37.2.22.38.39.55.51.47.35,1.02.54,1.59.54.28,0,.56-.05.83-.14.81-.28,1.44-.94,1.67-1.78.27-.99,0-1.9-.79-2.7l-6.53-6.53ZM40.35,45.29c0,1.81-.42,3.54-1.24,5.15v.02c-.14.3-.31.59-.49.87-.18.28-.36.55-.59.83-1.28,1.72-3.03,3.02-5.06,3.76-2.6.98-5.5.94-7.92,0-2.02-.73-3.78-2.02-5.09-3.75-.22-.27-.41-.56-.59-.85-.16-.23-.31-.49-.47-.85-.84-1.6-1.27-3.35-1.27-5.2.02-5.79,4.34-10.64,10.07-11.28.38-.05.79-.07,1.32-.07.49,0,.9.02,1.27.07,5.74.64,10.06,5.5,10.06,11.3Z"/>
</svg>