<?xml version="1.0" encoding="UTF-8"?>
<svg id="Layer_1" data-name="Layer 1" xmlns="http://www.w3.org/2000/svg" viewBox="0 0 170.43 43.87">
  <defs>
    <style>
      .cls-1 {
        fill: #3512a0;
        stroke-width: 0px;
      }
    </style>
  </defs>
  <g>
    <path class="cls-1" d="M62.98,24.52c0,1.76-.31,3.29-.92,4.6-.62,1.31-1.47,2.33-2.56,3.07-1.09.74-2.33,1.11-3.72,1.11-2.09,0-3.8-.7-5.1-2.1-1.31-1.4-1.96-3.38-1.96-5.94v-13.9h-4.16v14.92c0,2.19.41,4.08,1.22,5.68.82,1.6,1.97,2.84,3.46,3.72s3.24,1.32,5.24,1.32c1.69,0,3.24-.4,4.64-1.2,1.4-.8,2.54-2.01,3.42-3.63.17-.31.3-.64.44-.98v2.99c0,.77.23,1.38.69,1.82.46.45,1.06.67,1.8.67h1.71V11.35h-4.2v13.17Z"/>
    <path class="cls-1" d="M92.43,12.34c-1.46-.88-3.2-1.32-5.2-1.32-1.36,0-2.62.26-3.79.79-1.17.52-2.17,1.22-3,2.08-.83.86-1.45,1.82-1.85,2.86v-5.4h-4.2v25.31h4.2v-13.12c0-1.76.32-3.29.97-4.62.65-1.32,1.51-2.36,2.59-3.12,1.08-.75,2.29-1.13,3.65-1.13,2.13,0,3.83.72,5.13,2.15,1.29,1.43,1.94,3.43,1.94,5.98v13.86h4.16v-14.92c0-2.16-.4-4.04-1.2-5.66-.8-1.62-1.93-2.86-3.39-3.74Z"/>
    <path class="cls-1" d="M106.31,1.09c-.96,0-1.74.29-2.36.88-.62.59-.92,1.31-.92,2.17s.32,1.63.97,2.22c.65.59,1.42.88,2.31.88s1.66-.29,2.31-.88c.65-.58.97-1.32.97-2.22s-.32-1.59-.97-2.17c-.65-.58-1.42-.88-2.31-.88Z"/>
    <rect class="cls-1" x="104.18" y="11.35" width="4.2" height="25.31"/>
    <path class="cls-1" d="M122.02,33.34c-.55,0-1.03-.18-1.43-.55-.4-.37-.6-.91-.6-1.62V2.48h-4.2v29.06c0,1.29.27,2.35.81,3.17s1.22,1.4,2.06,1.75c.83.35,1.68.53,2.54.53,1.08,0,2-.23,2.77-.69l-.92-3.14c-.31.12-.65.18-1.02.18Z"/>
    <path class="cls-1" d="M147.12,31.03c-.88.68-1.88,1.24-3,1.69-1.12.45-2.3.67-3.53.67-1.6,0-3.06-.3-4.37-.9-1.31-.6-2.36-1.41-3.16-2.42-.8-1.02-1.29-2.12-1.48-3.33.31.03.71.07,1.2.12.49.05,1.03.08,1.62.12.58.03,1.12.05,1.62.05,1.79.06,3.56-.02,5.34-.25,1.77-.23,3.4-.65,4.87-1.25,1.48-.6,2.66-1.43,3.56-2.49.89-1.06,1.34-2.39,1.34-4,0-1.14-.26-2.19-.79-3.14-.52-.95-1.25-1.8-2.17-2.54-.92-.74-2.03-1.31-3.33-1.71-1.29-.4-2.73-.6-4.3-.6-1.76,0-3.44.32-5.06.95-1.62.63-3.05,1.54-4.3,2.73s-2.23,2.58-2.96,4.18c-.72,1.6-1.09,3.37-1.09,5.31s.32,3.69.97,5.24c.65,1.56,1.57,2.9,2.77,4.04,1.2,1.14,2.62,2.01,4.27,2.61s3.46.9,5.43.9c1.72,0,3.33-.25,4.8-.74s2.82-1.17,4.02-2.03,2.2-1.83,3-2.91l-3.14-2.36c-.55.71-1.27,1.4-2.15,2.08ZM132.69,19.06c.83-1.32,1.95-2.39,3.35-3.21,1.4-.82,2.98-1.22,4.74-1.22,1.17,0,2.22.19,3.16.58.94.39,1.68.91,2.22,1.57.54.66.81,1.42.81,2.29s-.33,1.62-.99,2.19-1.53,1.02-2.61,1.36c-1.08.34-2.25.58-3.51.72s-2.51.21-3.74.21c-.99,0-1.89-.02-2.73-.07-.83-.05-1.51-.12-2.03-.21.06-1.48.51-2.88,1.34-4.2Z"/>
    <path class="cls-1" d="M168.3,32.28c-.34.28-.7.5-1.08.67-.39.17-.79.25-1.22.25-.65,0-1.19-.21-1.64-.65-.45-.43-.67-1.05-.67-1.85v-15.89h5.82v-3.46h-7.99c.46-.12.85-.32,1.18-.6.32-.28.58-.61.76-.99.19-.38.28-.79.28-1.22v-3.51h-4.3v4.25c0,.65-.18,1.15-.53,1.52-.35.37-.85.55-1.5.55h-2.26v3.46h4.3v15.75c0,1.91.59,3.46,1.78,4.64s2.66,1.78,4.41,1.78c.92,0,1.79-.15,2.59-.44.8-.29,1.54-.75,2.22-1.36l-2.12-2.91Z"/>
  </g>
  <g>
    <path class="cls-1" d="M36.1,13.22h0c-2.68-2.4-5.36-4.8-8.03-7.21-1.6-1.44-3.2-2.88-4.8-4.32-2.52-2.26-5.77-2.26-8.29,0-2.15,1.93-4.3,3.87-6.44,5.8-2.15,1.93-4.29,3.87-6.44,5.8-1.41,1.26-2.09,2.8-2.09,4.7.01,4.69.01,9.38.01,14.07,0,.36,0,.73.06,1.1.52,2.99,2.91,5.01,5.94,5.02h2.53l.72-.03-.53-.51-.06-.08c-.1-.14-.2-.28-.29-.43-.52-.78-.95-1.62-1.28-2.51-.08-.19-.15-.39-.21-.57l-.07-.21h-.64c-1.2-.01-1.83-.65-1.83-1.85v-13.93c0-.65.21-1.14.69-1.56l12.95-11.65c.72-.64,1.54-.66,2.24-.03l13.08,11.78c.39.34.58.78.58,1.34.01,4.74.01,9.46,0,14.2,0,.98-.6,1.66-1.49,1.69-.21.01-.38.01-.61.01h-.21l-.28.78c-.17.47-.37.9-.6,1.34l-.1.19,1.36,1.36c.2.19.39.37.57.56l.09.09h.12c.15,0,.3-.02.5-.05,2.98-.52,4.98-2.91,4.99-5.95,0-2.01,0-4.02,0-6.03,0-2.68,0-5.36,0-8.04,0-1.96-.7-3.55-2.15-4.86Z"/>
    <path class="cls-1" d="M28.17,36.49s-.04-.04-.06-.07c.37-.51.68-1.04.93-1.56.08-.15.15-.29.22-.44h.1v-.24c.08-.18.16-.37.21-.55,1.54-4.34.18-9.22-3.38-12.14-4.28-3.52-10.56-3.28-14.59.55-3.12,2.95-4.21,7.51-2.76,11.6.06.21.14.41.22.62.09.21.18.41.28.61.31.62.63,1.15.97,1.61.29.39.57.72.84,1.01.21.24.44.45.62.61.25.24.5.44.73.61,3.89,2.94,9.26,3,13.15.18.02.03.04.05.07.07,1.41,1.42,2.81,2.82,4.22,4.22.13.15.25.26.36.33.31.23.68.35,1.05.35.19,0,.37-.03.55-.09.54-.18.95-.62,1.1-1.18.18-.66,0-1.26-.52-1.79l-4.32-4.32ZM26.71,29.98c0,1.2-.28,2.35-.82,3.41h0c-.09.21-.2.4-.32.59-.12.18-.24.37-.39.55-.85,1.14-2.01,2-3.35,2.49-1.72.65-3.64.62-5.24,0-1.34-.48-2.5-1.34-3.37-2.48-.14-.18-.27-.37-.39-.56-.1-.15-.2-.33-.31-.56-.56-1.06-.84-2.22-.84-3.44.01-3.83,2.88-7.04,6.66-7.47.25-.03.52-.04.87-.04.32,0,.6.01.84.05,3.8.42,6.66,3.64,6.66,7.48Z"/>
  </g>
</svg>